<?xml version="1.0" standalone="no"?>
<!DOCTYPE svg PUBLIC "-//W3C//DTD SVG 20010904//EN"
 "http://www.w3.org/TR/2001/REC-SVG-20010904/DTD/svg10.dtd">
<svg version="1.0" xmlns="http://www.w3.org/2000/svg"
 width="500.000000pt" height="500.000000pt" viewBox="0 0 500.000000 500.000000"
 preserveAspectRatio="xMidYMid meet">
<metadata>
Created by potrace 1.14, written by Peter Selinger 2001-2017
</metadata>
<g transform="translate(0.000000,500.000000) scale(0.100000,-0.100000)"
fill="#000000" stroke="none">
<path d="M2255 4984 c-186 -27 -260 -40 -376 -70 -185 -46 -288 -83 -459 -166
-175 -85 -232 -119 -375 -221 -360 -258 -649 -617 -837 -1040 -144 -326 -223
-772 -198 -1118 18 -244 69 -501 140 -704 36 -102 150 -345 207 -438 53 -89
161 -239 234 -329 58 -71 67 -77 94 -73 534 84 916 117 1647 141 l177 6 7 54
c12 99 -27 222 -113 354 -80 122 -337 353 -620 555 l-82 59 14 34 c8 18 38 96
67 173 29 76 55 139 58 139 3 0 43 -53 90 -117 93 -128 243 -291 330 -358 204
-157 410 -163 564 -16 88 85 150 173 216 308 33 68 60 127 60 132 0 6 4 13 10
16 10 6 28 -20 121 -174 l57 -95 -122 -150 c-257 -320 -373 -512 -422 -699
-18 -68 -23 -203 -8 -216 5 -5 88 -10 184 -12 l175 -4 53 130 c62 151 132 379
158 515 24 126 24 364 1 468 -30 132 -93 280 -163 386 -135 203 -397 434 -647
572 -93 51 -107 65 -107 109 0 36 16 62 80 130 26 28 61 68 78 89 l31 40 -41
24 c-22 14 -105 70 -184 126 -233 165 -415 292 -482 336 -69 46 -171 160 -206
230 -56 112 -67 267 -27 372 52 135 152 239 279 290 48 19 75 23 177 23 128 0
190 -16 268 -69 34 -23 34 -23 58 -4 44 36 140 76 208 89 89 15 172 1 269 -46
94 -47 161 -114 208 -211 34 -68 39 -86 42 -168 6 -126 -16 -185 -125 -345
-48 -69 -98 -142 -113 -161 -15 -19 -59 -82 -98 -140 -39 -58 -94 -136 -121
-175 l-50 -69 43 -61 c24 -33 69 -98 101 -145 32 -47 92 -129 134 -183 42 -54
88 -114 102 -132 78 -101 287 -317 368 -379 209 -161 342 -218 511 -217 160 0
268 49 403 184 125 127 256 329 356 554 l30 68 1 -90 c1 -452 -250 -894 -730
-1285 -211 -173 -303 -268 -495 -514 -22 -28 -78 -96 -125 -151 -98 -115 -160
-191 -160 -198 0 -2 66 -7 148 -11 226 -10 773 -72 991 -112 23 -4 34 6 89 73
182 223 359 531 441 767 62 177 112 410 131 610 34 348 -25 804 -144 1106 -42
105 -144 318 -190 395 -34 58 -184 272 -206 296 -8 9 -51 56 -95 105 -67 74
-133 139 -273 264 -56 51 -295 207 -396 260 -212 110 -338 160 -541 211 -231
59 -318 70 -595 74 -140 2 -268 1 -285 -1z m1785 -1456 c130 -61 208 -144 246
-263 33 -104 32 -195 -3 -300 -23 -71 -34 -88 -92 -146 -44 -43 -90 -77 -136
-100 -67 -33 -74 -34 -185 -34 -110 0 -119 2 -180 32 -99 49 -172 120 -217
211 -37 75 -38 78 -38 191 0 109 2 120 31 182 52 110 152 200 266 241 80 28
233 22 308 -14z m-1917 -563 c9 -22 27 -67 41 -100 25 -59 32 -108 20 -139 -3
-9 -50 -42 -103 -73 -127 -75 -196 -128 -275 -215 -70 -77 -133 -186 -163
-283 -14 -48 -18 -90 -17 -210 1 -131 6 -170 37 -315 78 -360 86 -406 97 -521
7 -65 10 -123 8 -129 -3 -10 -127 124 -206 223 -19 23 -71 85 -117 137 -160
182 -230 263 -287 332 -31 38 -91 106 -132 151 -41 45 -87 99 -103 119 -15 20
-61 74 -102 120 -40 46 -83 94 -95 108 -12 14 -64 73 -115 133 l-94 107 18 48
c10 26 38 89 62 140 24 51 43 98 43 104 0 24 19 -10 70 -122 58 -129 154 -280
226 -355 72 -75 130 -100 229 -100 74 0 86 3 155 40 150 80 393 358 632 723
21 31 61 93 90 137 l53 80 6 -50 c4 -27 14 -68 22 -90z m-787 -336 c61 -29
110 -88 129 -154 28 -95 2 -178 -77 -251 -102 -94 -282 -72 -362 45 -81 118
-42 287 83 352 69 37 162 40 227 8z m1302 -84 c132 -40 210 -184 173 -321 -14
-51 -80 -128 -133 -155 -170 -87 -370 39 -370 232 0 136 114 255 248 258 17 1
54 -6 82 -14z"/>
<path d="M2360 750 l0 -130 36 0 35 0 -2 53 c-3 47 -1 52 20 55 31 5 25 46 -7
50 -31 5 -27 46 6 50 16 3 22 10 22 28 0 22 -3 24 -55 24 l-55 0 0 -130z"/>
<path d="M2030 855 c0 -10 10 -15 30 -15 20 0 30 5 30 15 0 10 -10 15 -30 15
-20 0 -30 -5 -30 -15z"/>
<path d="M3105 852 c-3 -3 -5 -15 -5 -27 0 -18 -4 -21 -32 -17 -46 7 -58 -16
-58 -114 0 -55 4 -85 13 -91 6 -4 38 -9 69 -10 l57 -3 5 53 c3 28 8 86 11 128
l6 77 -31 4 c-16 3 -32 2 -35 0z m-14 -150 c-3 -76 -21 -93 -21 -20 0 57 8 93
18 83 3 -3 4 -31 3 -63z"/>
<path d="M1593 843 c-8 -3 -11 -14 -7 -28 5 -21 3 -24 -26 -23 -48 2 -53 -10
-45 -106 7 -91 23 -123 54 -110 9 4 25 7 36 6 11 0 31 2 44 4 23 5 23 6 17 87
-14 165 -16 177 -40 176 -11 0 -27 -3 -33 -6z m1 -120 c9 -57 7 -103 -4 -103
-5 0 -10 15 -10 33 0 17 -3 49 -6 70 -4 22 -3 37 3 37 6 0 13 -17 17 -37z"/>
<path d="M2540 833 c-42 -15 -50 -35 -50 -113 0 -85 6 -96 58 -106 52 -10 78
14 87 81 9 75 -7 120 -47 134 -17 6 -31 11 -32 10 -1 0 -8 -3 -16 -6z m30
-109 c0 -47 -4 -73 -10 -69 -17 10 -11 145 6 145 2 0 4 -34 4 -76z"/>
<path d="M1410 814 c0 -9 5 -68 12 -130 l12 -114 33 0 c39 0 37 -9 21 146
l-12 114 -33 0 c-24 0 -33 -4 -33 -16z"/>
<path d="M2043 824 c-9 -4 -13 -36 -13 -110 l0 -104 35 0 36 0 -3 108 c-3 99
-5 107 -23 109 -11 1 -26 -1 -32 -3z"/>
<path d="M2120 787 c0 -23 3 -73 7 -110 6 -66 7 -68 32 -65 26 3 26 5 29 91 4
110 22 107 22 -4 l0 -79 35 0 34 0 -5 83 c-9 134 -3 126 -84 126 l-70 0 0 -42z"/>
<path d="M2660 731 c0 -67 4 -102 13 -109 6 -5 40 -10 75 -11 l62 -1 0 104 c0
85 -3 105 -16 110 -38 15 -44 8 -45 -56 -1 -60 -14 -134 -19 -113 -1 6 -2 47
0 93 l2 82 -36 0 -36 0 0 -99z"/>
<path d="M1320 810 c0 -20 21 -204 26 -227 3 -18 11 -23 35 -23 l31 0 -7 68
c-22 206 -16 187 -52 190 -20 2 -33 -1 -33 -8z"/>
<path d="M1856 811 c-3 -4 -3 -54 1 -110 l6 -101 35 0 34 0 -7 90 c-5 57 -4
90 3 90 5 0 13 -38 17 -85 l7 -85 29 0 c29 0 29 1 28 58 0 31 -4 77 -7 102
l-7 45 -67 2 c-37 2 -69 -1 -72 -6z"/>
<path d="M2836 767 c-3 -28 -6 -76 -6 -104 l0 -53 35 0 35 0 0 85 c0 50 4 85
10 85 6 0 10 -37 10 -90 l0 -90 29 0 c26 0 29 3 35 46 10 75 7 151 -6 162 -7
5 -41 10 -74 11 l-61 1 -7 -53z"/>
<path d="M3460 806 c0 -15 21 -26 51 -26 12 0 19 7 19 20 0 16 -7 20 -35 20
-23 0 -35 -5 -35 -14z"/>
<path d="M1203 803 c-13 -2 -23 -10 -23 -17 0 -25 30 -239 34 -243 2 -3 29 -2
60 2 50 7 56 10 56 31 0 20 -5 24 -30 24 -27 0 -30 3 -30 30 0 24 4 30 21 30
30 0 22 44 -8 48 -31 5 -33 52 -3 52 15 0 20 7 20 25 0 22 -4 25 -37 24 -21
-1 -48 -4 -60 -6z"/>
<path d="M1701 791 c-12 -12 -21 -32 -21 -46 0 -21 5 -25 27 -25 l27 0 -22
-16 c-16 -11 -22 -25 -22 -53 0 -53 15 -62 89 -55 l62 7 -7 76 c-9 107 -19
125 -71 129 -32 2 -47 -2 -62 -17z m63 -37 c6 -17 0 -34 -12 -34 -4 0 -9 11
-10 25 -2 28 12 34 22 9z m3 -111 c-4 -17 -4 -17 -12 0 -4 9 -4 25 0 35 8 16
8 16 12 0 3 -10 3 -26 0 -35z"/>
<path d="M3370 795 c0 -8 -3 -15 -7 -15 -10 0 -15 -198 -5 -203 4 -3 21 -8 39
-12 l32 -6 -5 63 c-4 43 -1 76 9 106 8 23 11 42 6 42 -5 0 -9 9 -9 20 0 16 -7
20 -30 20 -20 0 -30 -5 -30 -15z"/>
<path d="M3213 785 c-32 -23 -31 -65 1 -65 16 0 27 7 31 21 4 13 11 17 16 12
15 -15 0 -41 -29 -48 -42 -10 -52 -24 -52 -71 0 -47 6 -52 71 -53 21 0 43 -2
50 -3 26 -6 39 181 15 201 -25 21 -79 24 -103 6z m38 -158 c-8 -8 -11 -4 -11
14 0 33 14 47 18 19 2 -12 -1 -27 -7 -33z"/>
<path d="M3456 733 c-3 -21 -8 -68 -12 -105 l-6 -68 26 0 c14 0 29 -1 34 -2 4
-1 10 25 14 57 4 33 10 81 13 108 l6 47 -35 0 c-32 0 -35 -2 -40 -37z"/>
<path d="M3570 742 c-19 -15 -24 -31 -28 -97 -6 -90 4 -105 68 -105 54 0 70
24 77 113 l6 75 -31 16 c-40 21 -65 20 -92 -2z m55 -97 c-3 -36 -11 -65 -16
-65 -10 0 -2 115 8 133 12 20 15 -7 8 -68z"/>
<path d="M3727 723 c-9 -31 -30 -184 -26 -187 2 -2 16 -6 31 -10 31 -7 31 -8
48 103 5 35 12 66 15 69 13 13 13 -10 1 -90 l-12 -86 29 -6 c17 -3 32 -5 33
-3 2 1 8 44 14 95 13 106 7 122 -44 121 -17 0 -43 2 -58 6 -20 5 -27 3 -31
-12z"/>
<path d="M2157 499 c-289 -11 -775 -56 -957 -87 l-44 -7 31 -23 c53 -37 302
-158 428 -207 304 -120 735 -183 1056 -156 253 21 496 72 695 146 104 40 369
168 436 213 34 22 37 27 21 33 -24 9 -429 55 -598 69 -339 27 -714 34 -1068
19z"/>
</g>
</svg>
