<?xml version="1.0" standalone="no"?>
<!DOCTYPE svg PUBLIC "-//W3C//DTD SVG 20010904//EN"
 "http://www.w3.org/TR/2001/REC-SVG-20010904/DTD/svg10.dtd">
<svg version="1.0" xmlns="http://www.w3.org/2000/svg"
 width="102.000000pt" height="102.000000pt" viewBox="0 0 102.000000 102.000000"
 preserveAspectRatio="xMidYMid meet">
<metadata>
Created by potrace 1.14, written by Peter Selinger 2001-2017
</metadata>
<g transform="translate(0.000000,102.000000) scale(0.100000,-0.100000)"
fill="#000000" stroke="none">
<path d="M445 989 c-33 -4 -86 -19 -118 -33 l-57 -25 0 -90 c0 -115 3 -124 38
-106 15 8 53 26 85 39 45 20 61 33 70 56 13 33 22 38 31 14 4 -10 13 -13 26
-9 14 4 20 2 20 -8 0 -7 11 -19 24 -25 14 -6 33 -23 42 -37 15 -23 15 -28 3
-36 -21 -14 61 -89 98 -89 20 0 36 -10 56 -34 15 -19 27 -40 27 -47 0 -6 10
-32 22 -56 l22 -44 -52 -51 c-29 -27 -52 -53 -52 -56 0 -4 11 -34 25 -67 13
-33 29 -80 36 -105 l11 -45 56 60 c176 189 172 476 -9 658 -65 64 -174 123
-248 132 -25 3 -57 7 -71 9 -14 1 -52 -1 -85 -5z"/>
<path d="M169 843 c-89 -93 -129 -192 -129 -318 0 -265 205 -475 465 -475 82
0 135 8 135 21 0 5 -6 9 -14 9 -30 0 -213 101 -261 143 l-50 45 120 -59 c123
-59 292 -113 315 -99 27 17 -26 172 -81 234 -42 49 -90 72 -199 97 -49 11
-104 31 -122 43 -73 49 -108 141 -117 310 l-6 108 -56 -59z"/>
</g>
</svg>
